<?xml version="1.0" encoding="UTF-8"?>
<svg version="1.1" xmlns="http://www.w3.org/2000/svg" width="2160" height="2160">
<path d="M0 0 C4.80989263 1.53661976 8.1138116 4.27016831 11.9375 7.4375 C13.27422318 8.52667575 14.61147509 9.61520287 15.94921875 10.703125 C16.62388184 11.25419922 17.29854492 11.80527344 17.99365234 12.37304688 C21.04864224 14.85034703 24.1488154 17.26848126 27.25 19.6875 C32.22382625 23.58188548 37.14110638 27.5370698 42.01953125 31.55078125 C45.69033232 34.56728488 49.37515091 37.56626157 53.0625 40.5625 C53.75714355 41.12694824 54.45178711 41.69139648 55.16748047 42.27294922 C59.53806818 45.82113126 63.92571021 49.3468328 68.328125 52.85546875 C71.1239254 55.09946644 73.90385456 57.36211377 76.68237305 59.62744141 C82.65579757 64.49561664 88.64375002 69.34428034 94.6875 74.125 C95.25114258 74.57399658 95.81478516 75.02299316 96.39550781 75.4855957 C99.47574948 77.91023911 102.5907035 80.06448102 106 82 C106.43119141 81.64397705 106.86238281 81.2879541 107.30664062 80.92114258 C134.36442192 58.58847278 134.36442192 58.58847278 147.64135742 48.23364258 C152.32492797 44.56545162 156.91784018 40.79377613 161.5 37 C168.23365028 31.43174593 175.01862143 25.94709497 181.93164062 20.60302734 C183.47509773 19.40681165 185.01487392 18.20584369 186.55273438 17.00244141 C189.36194826 14.80558079 192.18012074 12.620648 195 10.4375 C196.34529785 9.38199951 196.34529785 9.38199951 197.71777344 8.30517578 C206.54390644 1.51367073 206.54390644 1.51367073 211 1 C213.6484375 2.31640625 213.6484375 2.31640625 216.375 4.5625 C216.88047363 4.96871582 217.38594727 5.37493164 217.90673828 5.79345703 C219.0195093 6.6921693 220.12449559 7.60058221 221.22265625 8.51708984 C223.08160192 10.0680838 224.9598489 11.59271736 226.84375 13.11328125 C229.56075051 15.30884057 232.26931526 17.51421086 234.97265625 19.7265625 C238.71639236 22.78153737 242.50434057 25.77592859 246.3125 28.75 C251.26651886 32.6227408 256.16338348 36.55539823 261.01953125 40.55078125 C264.69033417 43.5672864 268.37536218 46.5659991 272.0625 49.5625 C272.69913574 50.08054199 273.33577148 50.59858398 273.99169922 51.13232422 C274.62479004 51.64682129 275.25788086 52.16131836 275.91015625 52.69140625 C276.51790138 53.20981236 277.12564651 53.72821848 277.75180817 54.26233387 C279.95900804 56.07208222 279.95900804 56.07208222 282.53917694 57.33409405 C286.25316425 59.5341706 289.30907264 61.66883707 290.58708954 65.98081803 C291.59554802 72.27724312 291.40445747 78.66350103 291.35742188 85.02075195 C291.37753286 87.1814383 291.4018311 89.34208913 291.42999268 91.50268555 C291.49259993 97.36066619 291.49146239 103.21700246 291.47498131 109.0752337 C291.46665329 113.97082061 291.48861863 118.86608587 291.51026964 123.76161736 C291.56053605 135.31489139 291.55831472 146.86734724 291.5234375 158.4206543 C291.48840542 170.32655244 291.5411447 182.22977058 291.63737059 194.13527137 C291.71699709 204.36840032 291.74217899 214.60068433 291.72394228 224.83410615 C291.71358825 230.94115759 291.72358036 237.04641169 291.78587341 243.15319252 C291.84209331 248.8993295 291.83006526 254.64142293 291.76644135 260.38744354 C291.75436639 262.49044381 291.7659386 264.59373954 291.80345917 266.69643974 C292.05868796 282.15673001 292.05868796 282.15673001 288.61355019 286.91483665 C284.87451646 290.72119738 280.58480274 293.32739848 276 296 C274.51649626 297.14519777 273.04944644 298.31337742 271.625 299.53125 C271.02042969 300.02560547 270.41585938 300.51996094 269.79296875 301.02929688 C269.20128906 301.51462891 268.60960937 301.99996094 268 302.5 C262.47772885 307.0089612 256.90812794 311.44844804 251.2890625 315.8359375 C246.81563292 319.33776247 242.40132798 322.90811164 238 326.5 C232.47660315 331.00759973 226.90815564 335.44842642 221.2890625 339.8359375 C216.81563292 343.33776247 212.40132798 346.90811164 208 350.5 C202.47660315 355.00759973 196.90815564 359.44842642 191.2890625 363.8359375 C186.81563025 367.33776455 182.40142446 370.90822679 178 374.5 C171.29838027 379.96647599 164.52914887 385.33844062 157.71337891 390.66162109 C154.82677164 392.91644882 151.94399791 395.17614792 149.0625 397.4375 C148.20096313 398.11341187 148.20096313 398.11341187 147.32202148 398.80297852 C143.00519751 402.19567126 138.71853421 405.62481635 134.4375 409.0625 C128.64150564 413.71324547 122.79576642 418.29059019 116.88671875 422.796875 C115.08795853 424.16967712 113.29732987 425.55328357 111.51953125 426.953125 C110.81183594 427.50484375 110.10414063 428.0565625 109.375 428.625 C108.78460938 429.09164063 108.19421875 429.55828125 107.5859375 430.0390625 C106 431 106 431 103 431 C101.28000086 421.48735393 101.25082911 411.7994507 101.03706169 402.15464783 C100.95980087 398.74376155 100.85046483 395.34081527 100.66259766 391.93408203 C99.48490001 370.01984846 99.48490001 370.01984846 103.61288452 363.42214966 C107.45727378 359.15628737 111.89586542 356.11716358 116.85490417 353.27772522 C120.171082 351.30244561 123.08415855 348.87974347 126.0625 346.4375 C127.19708264 345.54804967 128.33355832 344.66100407 129.47265625 343.77734375 C133.35617831 340.73516018 137.17843522 337.61942082 141 334.5 C146.54911983 329.97238641 152.13915801 325.5048401 157.78125 321.09375 C162.04463173 317.75845137 166.27783818 314.38729563 170.5 311 C178.758756 304.37765386 187.08287985 297.84010325 195.42578125 291.32421875 C202.34140092 285.91553507 209.19623677 280.44204569 215.96826172 274.85400391 C216.57943848 274.35304199 217.19061523 273.85208008 217.8203125 273.3359375 C218.42102318 272.82998362 219.02173386 272.32402973 219.64064789 271.80274391 C222 270 222 270 224.97858429 268.2871151 C229.76250117 265.34134211 233.33505213 263.07945156 235.12483215 257.48237991 C235.7133763 253.14895081 235.6243972 248.81855652 235.55273438 244.45556641 C235.56901703 242.78732319 235.59039583 241.11912317 235.61645508 239.45100403 C235.67096427 234.93952713 235.65004283 230.43135846 235.61190605 225.91982698 C235.58140729 221.18567122 235.60973364 216.45178842 235.62854004 211.71762085 C235.65034334 203.7666365 235.62168457 195.81699164 235.56445312 187.86621094 C235.49919021 178.6941873 235.52026903 169.52536647 235.58636999 160.35342085 C235.64096558 152.4598618 235.64844274 144.56726278 235.61710596 136.67357576 C235.59846583 131.96733257 235.59570582 127.26259074 235.63554382 122.55644608 C235.67041898 118.12751708 235.64581467 113.70268098 235.57681274 109.2741909 C235.56105051 107.65663998 235.5653256 106.03873976 235.59196472 104.42133141 C235.79156109 94.89280532 235.79156109 94.89280532 231.45368958 86.68537521 C228.537382 83.79766669 225.34420993 81.37825268 222 79 C220.84485283 78.15203589 219.69061353 77.30283354 218.53731537 76.45235634 C213.74156696 72.54192028 213.74156696 72.54192028 208.015625 71.03125 C205.11423416 72.42571691 202.78045477 74.25903305 200.25 76.25 C199.40779907 76.90947632 199.40779907 76.90947632 198.54858398 77.58227539 C193.31992168 81.69648036 188.16442614 85.90298586 183.01245117 90.11254883 C178.73441849 93.60560263 174.41933782 97.04341616 170.0625 100.4375 C164.05985457 105.11827254 158.18655272 109.94546322 152.32543945 114.80175781 C147.85201385 118.49977612 143.33183889 122.12492066 138.75 125.6875 C134.1622775 129.25638214 129.67315623 132.91649247 125.25 136.6875 C121.35404235 140.00458269 117.45771607 143.3190463 113.5 146.5625 C112.7471875 147.18253906 111.994375 147.80257812 111.21875 148.44140625 C108.89449939 150.07411047 106.67000905 151.05515525 104 152 C103.22398437 151.33355469 102.44796875 150.66710937 101.6484375 149.98046875 C95.93697824 145.09887199 90.18134729 140.30029476 84.25 135.6875 C78.23314838 131.0059435 72.33522851 126.19293678 66.46020508 121.33496094 C59.66936249 115.71991255 52.83323204 110.16214668 45.98828125 104.61328125 C43.30625885 102.43710198 40.62834781 100.25588982 37.95019531 98.07495117 C35.29454324 95.91441521 32.63461007 93.75918216 29.97460938 91.60400391 C27.99422643 89.99531004 26.02041831 88.37879202 24.046875 86.76171875 C12.89826417 76.31646583 12.89826417 76.31646583 -0.32421875 70.953125 C-4.39904244 72.54736259 -7.37784093 75.24641743 -10.6875 78.0625 C-12.12474601 79.25941963 -13.56224524 80.45603528 -15 81.65234375 C-15.6909375 82.23226074 -16.381875 82.81217773 -17.09375 83.40966797 C-19.42655421 85.35586246 -21.80116588 87.2449769 -24.1875 89.125 C-24.89228107 89.70859283 -25.59706215 90.29218567 -26.32320023 90.89346313 C-29 93 -29 93 -32.25916672 95.12850952 C-37.2299005 98.53463935 -41.8756121 101.87183119 -43.19345856 108.02862549 C-43.79436298 112.90208498 -43.66499319 117.76501252 -43.55175781 122.6640625 C-43.55632353 124.53633276 -43.56662898 126.40859641 -43.5821991 128.2808075 C-43.60829013 133.34256727 -43.55488945 138.40069346 -43.48711872 143.46194839 C-43.42994155 148.78217615 -43.44768638 154.10215702 -43.4574585 159.42260742 C-43.46488981 169.50794612 -43.40718451 179.59178962 -43.32508826 189.67675495 C-43.22607435 202.20499855 -43.20754387 214.73314014 -43.19140625 227.26171875 C-43.18529067 231.67171349 -43.17857337 236.0817066 -43.17108154 240.49169922 C-43.16927029 241.56242802 -43.16745904 242.63315681 -43.16559291 243.73633194 C-43.15091367 251.05891335 -43.11424229 258.38117222 -43.06768799 265.70361328 C-43.05097254 268.64130837 -43.03460301 271.57900522 -43.01830482 274.51670265 C-43.00172058 277.181242 -42.9792638 279.84568501 -42.95652771 282.51017761 C-42.88329014 293.70735899 -43.29415193 304.82531728 -44 316 C-48.39004595 315.25084853 -50.7673378 313.99787678 -54.3125 311.25 C-54.82248535 310.85731934 -55.3324707 310.46463867 -55.85791016 310.06005859 C-61.63627156 305.57687685 -67.28396955 300.92610688 -72.9453125 296.296875 C-76.84689145 293.11336656 -80.78804731 289.98292944 -84.75 286.875 C-85.32218262 286.42592285 -85.89436523 285.9768457 -86.48388672 285.51416016 C-89.67942294 282.98635747 -89.67942294 282.98635747 -93.14345074 280.85818958 C-95.99853776 278.00058 -95.59568729 274.84878924 -95.59541321 271.02677917 C-95.61082553 270.20513269 -95.62623784 269.38348621 -95.6421172 268.53694135 C-95.68864711 265.77348519 -95.70632952 263.01060761 -95.72387695 260.24682617 C-95.75057116 258.26910384 -95.77878046 256.29140146 -95.80839539 254.3137207 C-95.89779943 247.80695904 -95.94415322 241.30016868 -95.98828125 234.79296875 C-96.00578491 232.55116414 -96.02351321 230.30936127 -96.04146385 228.0675602 C-96.12308153 217.52875989 -96.18454943 206.99006732 -96.22232181 196.45101947 C-96.26664079 184.30025727 -96.38050817 172.15274291 -96.55382568 160.00315303 C-96.6832781 150.60505537 -96.74698867 141.20788763 -96.76218575 131.80891782 C-96.77286611 126.19887491 -96.81141922 120.59237772 -96.91967201 114.98329735 C-97.02010387 109.69654893 -97.03843888 104.41559139 -96.9960041 99.12812042 C-96.99430581 97.1971133 -97.02127215 95.26581519 -97.08032608 93.33571053 C-97.48824177 79.20923194 -97.48824177 79.20923194 -93.35008216 73.87200379 C-89.33960905 69.83407254 -84.86656461 66.56908736 -80.13110292 63.43601382 C-76.92642598 61.2765872 -73.94515611 58.85937681 -70.9375 56.4375 C-69.80213085 55.54905385 -68.66556565 54.66213217 -67.52734375 53.77734375 C-63.64382417 50.73516212 -59.82148088 47.61952027 -56 44.5 C-50.50118949 40.01125562 -44.95431897 35.59460203 -39.35498047 31.23217773 C-34.70655645 27.59368307 -30.16330749 23.83696451 -25.625 20.0625 C-18.58625286 14.21393369 -11.36090093 8.66610979 -4 3.23046875 C-1.25141326 1.29993253 -1.25141326 1.29993253 0 0 Z " fill="#FFFFFF" transform="translate(117,864)"/>
<path d="M0 0 C3.75755762 10.39463134 2.76392971 22.06428593 2.91992188 32.98583984 C2.96446877 35.82391588 3.04796337 38.65672368 3.16601562 41.49267578 C4.17473288 66.31589161 4.17473288 66.31589161 -0.90625 72.14453125 C-4.27469858 75.10860327 -7.9946062 77.01586681 -12 79 C-13.49638571 80.12831338 -14.96336791 81.29854723 -16.375 82.53125 C-16.97965088 83.02568604 -17.58430176 83.52012207 -18.20727539 84.02954102 C-18.79887451 84.51479248 -19.39047363 85.00004395 -20 85.5 C-25.55008207 90.03055539 -31.14249538 94.4994937 -36.7878418 98.91064453 C-40.36342342 101.70664124 -43.91461757 104.53036501 -47.45043945 107.37646484 C-54.75905817 113.25824033 -62.16311894 119.00139421 -69.63671875 124.671875 C-72.66068251 126.96841775 -75.65908299 129.29424633 -78.64453125 131.640625 C-79.40523926 132.23431885 -80.16594727 132.8280127 -80.94970703 133.43969727 C-82.40240096 134.57430733 -83.85030636 135.71508525 -85.29248047 136.86303711 C-88.99758597 139.7429269 -92.2599774 142.21327426 -97 143 C-99.5 142.05078125 -99.5 142.05078125 -102 140.3125 C-102.95519531 139.65121094 -103.91039062 138.98992187 -104.89453125 138.30859375 C-112.06881949 132.97525494 -119.05000131 127.42844246 -125.95703125 121.75390625 C-127.30436601 120.64804569 -128.65202307 119.5425777 -130 118.4375 C-130.99132935 117.62478638 -130.99132935 117.62478638 -132.00268555 116.7956543 C-138.45181062 111.55263623 -145.16835774 106.72877738 -152 102 C-155.00891154 112.13470444 -154.16307709 124.34629038 -154.29711914 134.82006836 C-154.31677231 136.10973007 -154.33642548 137.39939178 -154.35667419 138.72813416 C-154.40965683 142.21056219 -154.45792996 145.69304034 -154.50525212 149.17554927 C-154.55581565 152.83505634 -154.61085665 156.49449624 -154.66539001 160.15394592 C-154.76763358 167.05951746 -154.86594413 173.96513896 -154.96278423 180.87078816 C-155.07337259 188.7428577 -155.18843294 196.61485999 -155.30383885 204.48686016 C-155.54081163 220.65783785 -155.77226627 236.8288895 -156 253 C-159.18316143 252.2820966 -161.00480593 251.44820238 -163.51171875 249.33203125 C-164.51211182 248.4970813 -164.51211182 248.4970813 -165.53271484 247.64526367 C-166.24379395 247.04045166 -166.95487305 246.43563965 -167.6875 245.8125 C-169.21469099 244.53367171 -170.74203928 243.25503127 -172.26953125 241.9765625 C-173.05150879 241.31817383 -173.83348633 240.65978516 -174.63916016 239.98144531 C-178.36234696 236.85658657 -182.11911306 233.77290475 -185.875 230.6875 C-187.28264276 229.52875597 -188.69019735 228.36990483 -190.09765625 227.2109375 C-191.39838894 226.14056599 -192.69916747 225.07025018 -194 224 C-194.5760498 223.52594727 -195.15209961 223.05189453 -195.74560547 222.56347656 C-197.26706121 221.31212606 -198.78973617 220.06225836 -200.3125 218.8125 C-201.13363281 218.13832031 -201.95476562 217.46414063 -202.80078125 216.76953125 C-204.90229399 214.97766964 -204.90229399 214.97766964 -207.10402298 213.82423782 C-209 212 -209 212 -209.51453781 208.91736984 C-209.52124119 207.63871677 -209.52794456 206.36006371 -209.53485107 205.04266357 C-209.5439133 204.3304176 -209.55297553 203.61817162 -209.56231236 202.88434243 C-209.58768724 200.49131804 -209.58435458 198.09919894 -209.58105469 195.70605469 C-209.5930202 193.99284184 -209.60663013 192.2796398 -209.62176514 190.56645203 C-209.65715765 185.90715993 -209.66647901 181.24816149 -209.66902828 176.58874798 C-209.67282381 172.6996869 -209.68753646 168.81069442 -209.70171666 164.92165971 C-209.7343093 155.74445012 -209.74405254 146.56739752 -209.74121094 137.39013672 C-209.73880911 127.92462773 -209.78098483 118.46003161 -209.84418559 108.9947536 C-209.89650844 100.8689173 -209.91794561 92.74337907 -209.9153893 84.61737561 C-209.91436965 79.7638247 -209.92575399 74.91108422 -209.9681015 70.05770111 C-210.00686318 65.49033382 -210.00712228 60.92454973 -209.97803497 56.35712624 C-209.97385535 54.68298083 -209.98328252 53.00873645 -210.00747681 51.33476067 C-210.17835628 38.69033511 -210.17835628 38.69033511 -207.24771404 34.48637104 C-205.24568289 32.70730946 -203.3094302 31.3430589 -201 30 C-200.12061768 29.29383545 -199.24123535 28.5876709 -198.33520508 27.86010742 C-195.83197302 25.96335162 -193.32571985 24.07100928 -190.8125 22.1875 C-189.49862305 21.18686523 -189.49862305 21.18686523 -188.15820312 20.16601562 C-187.30806641 19.52728516 -186.45792969 18.88855469 -185.58203125 18.23046875 C-184.44084839 17.37038208 -184.44084839 17.37038208 -183.27661133 16.49291992 C-179.37220042 13.93254751 -175.70042881 12.30445368 -171 13 C-168.4921875 14.65234375 -168.4921875 14.65234375 -165.875 16.9375 C-164.90691406 17.76636719 -163.93882812 18.59523438 -162.94140625 19.44921875 C-161.97074219 20.29097656 -161.00007813 21.13273438 -160 22 C-158.27615832 23.42314148 -156.54701613 24.83988809 -154.8125 26.25 C-153.45125 27.36375 -153.45125 27.36375 -152.0625 28.5 C-146.41036891 33.11398456 -140.74486865 37.7115189 -135.08056641 42.31054688 C-132.38194295 44.50187219 -129.68395712 46.6939815 -126.98608398 48.88623047 C-125.66668477 49.95829302 -124.34718676 51.030234 -123.02758789 52.10205078 C-119.54252544 54.93288544 -116.0591643 57.76578158 -112.578125 60.6015625 C-111.49144531 61.48618164 -111.49144531 61.48618164 -110.3828125 62.38867188 C-108.99688895 63.51695579 -107.61144499 64.64582914 -106.2265625 65.77539062 C-105.00694526 66.76789807 -103.78390818 67.75622597 -102.55664062 68.73925781 C-101.27935391 69.77374787 -100.03331477 70.84670656 -98.796875 71.9296875 C-97.08121876 73.15852555 -97.08121876 73.15852555 -95.1328125 73.00390625 C-91.95076256 71.50612816 -89.48472933 69.24916088 -86.875 66.9375 C-85.70271798 65.92214276 -84.52953417 64.90782579 -83.35546875 63.89453125 C-82.78103027 63.39646973 -82.2065918 62.8984082 -81.61474609 62.38525391 C-78.73365518 59.91363161 -75.75179719 57.57223068 -72.77734375 55.21484375 C-69.24636684 52.39900141 -65.74981266 49.54191309 -62.25 46.6875 C-56.66509586 42.13661963 -51.03346355 37.65461128 -45.34936523 33.22851562 C-41.48489664 30.20504476 -37.6982028 27.09995746 -33.93164062 23.95556641 C-5.21936275 0 -5.21936275 0 0 0 Z " fill="#FFFEFE" transform="translate(313,987)"/>
<path d="M0 0 C12.21 0 24.42 0 37 0 C44.18451832 13.59926683 51.25507896 27.25027767 58.25 40.94775391 C62.91393473 50.07704177 67.60159596 59.19280578 72.3671875 68.26953125 C72.97276489 69.42545776 72.97276489 69.42545776 73.59057617 70.60473633 C76.87830673 76.84696761 80.35728779 82.95695756 84 89 C93.11865997 72.41254032 102.19769746 55.79617618 110.5625 38.8125 C113.57071112 32.73115233 116.82976842 26.81186856 120.18579102 20.91723633 C124.05171721 14.07507872 127.52265179 7.044887 131 0 C136.10863896 -0.0246501 141.21724359 -0.04283607 146.32592773 -0.05493164 C148.06519168 -0.05997204 149.80445136 -0.0668043 151.54370117 -0.07543945 C154.03825937 -0.08751792 156.53276173 -0.09323108 159.02734375 -0.09765625 C159.80963852 -0.10281754 160.59193329 -0.10797882 161.39793396 -0.11329651 C163.26567114 -0.11349226 165.13329204 -0.06199694 167 0 C168 1 168 1 168.12304783 3.69991398 C168.12212604 4.91575892 168.12120424 6.13160387 168.12025452 7.3842926 C168.12153615 8.39625345 168.12153615 8.39625345 168.12284368 9.42865795 C168.12450039 11.70580162 168.11897404 13.9828728 168.11352539 16.26000977 C168.11324353 17.88575234 168.11340122 19.51149505 168.1139679 21.13723755 C168.11425593 25.56473413 168.10835827 29.99220387 168.10139394 34.41969419 C168.09516136 39.04150842 168.09455668 43.6633232 168.09336853 48.28514099 C168.09025493 57.04348237 168.08204115 65.80181133 168.07201904 74.56014723 C168.0608588 84.52854013 168.05534768 94.49693361 168.05032361 104.4653312 C168.03985856 124.97689441 168.02225857 145.48844642 168 166 C163.17619198 166.0246519 158.35242033 166.04283693 153.52856445 166.05493164 C151.88630536 166.05997174 150.24405077 166.06680378 148.60180664 166.07543945 C146.24624521 166.08751926 143.89074291 166.09323139 141.53515625 166.09765625 C140.79660904 166.10281754 140.05806183 166.10797882 139.2971344 166.11329651 C137.53101912 166.1134925 135.76502854 166.06194719 134 166 C131.84976752 163.84976752 132.8134956 158.87476672 132.79467773 155.89038086 C132.78477814 154.93438492 132.77487854 153.97838898 132.76467896 152.99342346 C132.73296148 149.81725586 132.70826619 146.64107327 132.68359375 143.46484375 C132.66303306 141.26908467 132.64203684 139.07332964 132.62062073 136.87757874 C132.56530861 131.08583842 132.51593978 125.29406186 132.46777344 119.5022583 C132.41762497 113.59717566 132.36190425 107.69214596 132.30664062 101.78710938 C132.19894733 90.19145142 132.09752733 78.5957476 132 67 C131.72259979 67.52712585 131.44519958 68.05425171 131.15939331 68.59735107 C129.8745199 71.03887407 128.58960387 73.48037462 127.3046875 75.921875 C126.86858154 76.75058105 126.43247559 77.57928711 125.9831543 78.43310547 C122.57398369 84.910845 119.16204618 91.38712211 115.74755859 97.86206055 C113.45332242 102.21866317 111.17671109 106.58393332 108.9140625 110.95703125 C108.38796387 111.9718457 107.86186523 112.98666016 107.31982422 114.03222656 C106.30570774 115.98980257 105.29413242 117.94869806 104.28564453 119.90917969 C103.34502942 121.72343013 102.38891973 123.52974227 101.41650391 125.32714844 C100.45031998 127.15027523 99.54289387 129.00546323 98.68896484 130.88378906 C97.32695604 133.63113041 96.12884127 135.78961038 94 138 C90.29760188 139.1866186 86.96374424 138.96310078 83.125 138.625 C82.15046875 138.57988281 81.1759375 138.53476563 80.171875 138.48828125 C77.77486951 138.37078098 75.39065911 138.20702484 73 138 C72.41605469 136.81470703 72.41605469 136.81470703 71.8203125 135.60546875 C67.12685203 126.14284683 62.23844909 116.79139482 57.29833984 107.45556641 C55.19290195 103.47352534 53.09695338 99.48651576 51 95.5 C49.35 92.365 47.7 89.23 46 86 C42.7 79.73 39.4 73.46 36 67 C35.67 99.67 35.34 132.34 35 166 C23.45 166 11.9 166 0 166 C0 111.22 0 56.44 0 0 Z " fill="#FFFFFF" transform="translate(480,946)"/>
<path d="M0 0 C0.78387589 -0.0049649 1.56775177 -0.00992981 2.37538147 -0.01504517 C4.98406845 -0.02971698 7.59269444 -0.0364805 10.20141602 -0.04199219 C12.01449078 -0.0477438 13.82756553 -0.05350153 15.64064026 -0.05926514 C19.45313806 -0.06979229 23.2656147 -0.07562231 27.078125 -0.07910156 C31.94350848 -0.08456045 36.80860842 -0.10852492 41.67390347 -0.13707352 C45.42563157 -0.1557885 49.17729297 -0.1609104 52.9290638 -0.16243744 C54.72106523 -0.16544945 56.5130659 -0.17342852 58.30502129 -0.18662262 C76.21793441 -0.30899298 89.78661077 3.00421606 103.23266602 15.74707031 C114.96767567 28.14405487 120.06174005 42.61907371 119.76782227 59.50097656 C119.10217529 69.24646434 117.10310741 78.07157579 111.51782227 86.16113281 C111.00219727 86.92039062 110.48657227 87.67964844 109.95532227 88.46191406 C105.86019837 94.10218887 101.1659005 98.13126553 95.51782227 102.16113281 C94.18256092 103.15855695 92.84862793 104.15777143 91.51782227 105.16113281 C92.02829102 105.93972656 92.53875977 106.71832031 93.06469727 107.52050781 C98.35500873 115.64460548 103.40788387 123.8927565 108.35473633 132.23046875 C110.96727421 136.62420324 113.66857204 140.9151913 116.51782227 145.16113281 C117.3299527 146.56616829 118.12374904 147.98207476 118.89282227 149.41113281 C121.25077555 153.75124057 123.83034586 157.9264101 126.47875977 162.09472656 C126.9930957 163.11759766 126.9930957 163.11759766 127.51782227 164.16113281 C127.18782227 164.82113281 126.85782227 165.48113281 126.51782227 166.16113281 C121.25302423 166.45939999 115.99319841 166.67618359 110.72192383 166.8203125 C108.93264094 166.88040759 107.14394142 166.96212256 105.35668945 167.06640625 C90.50447145 167.91084674 90.50447145 167.91084674 85.58642578 163.5793457 C83.52140297 160.50715421 81.95661029 157.56566323 80.51782227 154.16113281 C79.83536139 152.80441959 79.14935575 151.44946261 78.45532227 150.09863281 C78.15883789 149.46957031 77.86235352 148.84050781 77.55688477 148.19238281 C75.79131326 144.74088964 73.62163934 141.54782495 71.51391602 138.29785156 C68.84643203 134.10609101 66.31557143 129.8371638 63.80224609 125.55151367 C61.9134893 122.36292106 59.93970938 119.32087397 57.74438477 116.33300781 C55.51782227 113.16113281 55.51782227 113.16113281 55.51782227 111.16113281 C46.27782227 111.16113281 37.03782227 111.16113281 27.51782227 111.16113281 C27.52942383 115.04765625 27.54102539 118.93417969 27.55297852 122.93847656 C27.56076764 126.68481362 27.56684522 130.43114979 27.57275391 134.17749023 C27.57779603 136.789799 27.58462952 139.40210493 27.59326172 142.0144043 C27.60533262 145.75993549 27.61105162 149.50542953 27.61547852 153.25097656 C27.6206398 154.42699936 27.62580109 155.60302216 27.63111877 156.81468201 C27.63119431 157.89572708 27.63126984 158.97677216 27.63134766 160.09057617 C27.63356827 161.04765976 27.63578888 162.00474335 27.63807678 162.99082947 C27.51782227 165.16113281 27.51782227 165.16113281 26.51782227 166.16113281 C24.00858073 166.26200493 21.52745843 166.30085314 19.01782227 166.29394531 C18.26694336 166.29490204 17.51606445 166.29585876 16.74243164 166.29684448 C15.151936 166.29752619 13.56143759 166.29567253 11.97094727 166.29150391 C9.52817572 166.28615548 7.08558805 166.29144915 4.64282227 166.29785156 C3.10115519 166.29719078 1.55948823 166.29590961 0.01782227 166.29394531 C-0.71758789 166.29596954 -1.45299805 166.29799377 -2.21069336 166.30007935 C-7.36722613 166.27608442 -7.36722613 166.27608442 -8.48217773 165.16113281 C-8.58125962 163.04983271 -8.60850125 160.93515685 -8.60916138 158.8215332 C-8.61150136 157.81675603 -8.61150136 157.81675603 -8.61388862 156.79168034 C-8.61790055 154.53069468 -8.61470825 152.26977531 -8.61157227 150.00878906 C-8.61292622 148.39452067 -8.61470612 146.7802526 -8.61688232 145.16598511 C-8.62145734 140.76941553 -8.61966682 136.3728693 -8.61650324 131.97629929 C-8.61397998 127.38564743 -8.61631708 122.79499764 -8.6178894 118.2043457 C-8.6197112 110.49364867 -8.61730452 102.78296121 -8.61254883 95.07226562 C-8.60710619 86.14441569 -8.60886884 77.21658859 -8.61437523 68.2887392 C-8.61890607 60.63780935 -8.61955706 52.98688638 -8.61693656 45.33595562 C-8.61537363 40.76010959 -8.61518047 36.18427431 -8.61847305 31.60842896 C-8.62135135 27.30753632 -8.61937685 23.00667327 -8.6135788 18.70578384 C-8.61225097 17.12267226 -8.61264569 15.53955822 -8.61484146 13.9564476 C-8.61755211 11.80450837 -8.61417293 9.65266543 -8.60916138 7.50073242 C-8.60878435 6.29356064 -8.60840733 5.08638885 -8.60801888 3.84263611 C-8.35746786 -1.49626484 -4.32258688 0.00646466 0 0 Z M27.51782227 30.16113281 C27.51782227 46.66113281 27.51782227 63.16113281 27.51782227 80.16113281 C37.97469727 80.28488281 37.97469727 80.28488281 48.64282227 80.41113281 C50.83310059 80.44754883 53.02337891 80.48396484 55.2800293 80.52148438 C57.0285545 80.53317386 58.77709063 80.54336507 60.52563477 80.55175781 C61.87226196 80.58245361 61.87226196 80.58245361 63.24609375 80.61376953 C70.11229937 80.61757458 73.53472358 78.73744532 78.75219727 74.23144531 C83.41714157 68.76148849 85.30241727 60.86541833 84.96313477 53.77441406 C83.62975268 45.94956658 80.64623654 39.1111945 74.26391602 34.24707031 C67.86520628 30.26755956 61.70874116 30.01102604 54.27563477 30.06347656 C53.59364014 30.06448364 52.91164551 30.06549072 52.20898438 30.06652832 C49.68691298 30.07171892 47.16486574 30.08567986 44.64282227 30.09863281 C38.99157227 30.11925781 33.34032227 30.13988281 27.51782227 30.16113281 Z " fill="#FFFFFF" transform="translate(872.482177734375,945.8388671875)"/>
<path d="M0 0 C-0.50787361 5.50913747 -2.56956268 9.33042351 -5.3125 14 C-5.70373047 14.68578125 -6.09496094 15.3715625 -6.49804688 16.078125 C-8.84848187 20.16312645 -11.34262233 24.1081883 -14 28 C-18.50875402 27.4311776 -21.48634568 25.64190846 -25.3125 23.25 C-38.57087247 15.36678681 -54.18226784 10.78844991 -69.5625 14.1875 C-75.24057693 15.86374079 -78.4579799 17.7897712 -81.875 22.6875 C-83.38238014 27.12589709 -83.26898334 30.50602079 -82 35 C-77.39681549 43.25398601 -67.44758862 45.37644816 -58.84300232 47.85415649 C-54.35267581 49.11265163 -49.85371087 50.3377385 -45.35058594 51.54956055 C-27.39155744 56.40717186 -10.18531218 62.00652195 1 78 C7.50676213 91.6905284 7.70808328 106.66859448 3 121 C-1.48680188 131.45329375 -8.04524329 137.74061721 -18 143 C-18.60247559 143.32532715 -19.20495117 143.6506543 -19.82568359 143.98583984 C-41.54734101 155.36839088 -69.65065322 153.10032449 -92.43994141 146.26855469 C-101.40344404 143.43347031 -109.87623565 139.82208566 -118.125 135.3125 C-118.8065918 134.94423096 -119.48818359 134.57596191 -120.19042969 134.1965332 C-124.77603309 131.55415369 -124.77603309 131.55415369 -125.77319336 129.08691406 C-126.16610614 125.47160896 -124.09433811 122.54115448 -122.4375 119.4375 C-122.07269531 118.73238281 -121.70789062 118.02726562 -121.33203125 117.30078125 C-120.23574418 115.19253689 -119.12181289 113.09475721 -118 111 C-117.38253906 109.84628906 -116.76507812 108.69257812 -116.12890625 107.50390625 C-114.7677432 104.99375186 -113.39388357 102.49209486 -112 100 C-108.02256025 100.66937401 -105.05201532 102.62893817 -101.625 104.6875 C-87.10861964 113.16604318 -73.12580355 118.18927625 -56.25 118.375 C-55.374646 118.38901855 -54.49929199 118.40303711 -53.59741211 118.41748047 C-46.67812268 118.36644458 -40.02633642 117.42106914 -34.5 113 C-31.63221512 109.17628683 -31.60661302 105.64196639 -32 101 C-35.70448026 93.59103947 -41.67563983 90.29781653 -49.203125 87.6484375 C-51.54804729 86.87822681 -53.89717018 86.12070563 -56.25 85.375 C-57.41402344 84.9934375 -58.57804687 84.611875 -59.77734375 84.21875 C-66.0207498 82.19121612 -72.28640574 80.34968878 -78.62792969 78.65722656 C-91.79968817 75.00774387 -105.63388754 69.23881373 -114 58 C-121.1853806 44.43716437 -121.22688019 30.31433304 -117.06640625 15.7265625 C-111.9358423 1.91487132 -100.73338895 -7.31566431 -87.671875 -13.41796875 C-59.1666236 -25.69948664 -24.81776335 -16.54517557 0 0 Z " fill="#FFFFFF" transform="translate(1518,963)"/>
<path d="M0 0 C1.25159912 0.00523682 2.50319824 0.01047363 3.79272461 0.01586914 C4.78942421 0.01799156 4.78942421 0.01799156 5.80625916 0.02015686 C7.93590735 0.02577021 10.06545175 0.03832485 12.19506836 0.05102539 C13.63582205 0.05603868 15.07657739 0.06060188 16.51733398 0.06469727 C20.05577938 0.07574394 23.59416375 0.09301747 27.13256836 0.11352539 C30.55470925 7.4605904 33.70495733 14.86906476 36.63256836 22.42602539 C36.99737305 23.35608398 37.36217773 24.28614258 37.73803711 25.24438477 C39.7460484 30.39828042 41.66558662 35.57511045 43.51147461 40.78930664 C46.39175623 48.91005429 49.47544704 56.94775355 52.57006836 64.98852539 C53.67378647 67.86059398 54.77653525 70.73303332 55.87866211 73.60571289 C56.28416542 74.66231613 56.28416542 74.66231613 56.69786072 75.74026489 C59.09933787 82.00712566 61.45704107 88.29001722 63.80810547 94.57592773 C65.4217932 98.88603561 67.05372384 103.18889077 68.69506836 107.48852539 C69.17109497 108.73811035 69.17109497 108.73811035 69.65673828 110.01293945 C71.61761775 115.1565575 73.58616355 120.29719317 75.56007385 125.43582153 C76.7303913 128.48306319 77.89925206 131.53086288 79.06808472 134.57867432 C79.64703928 136.08705474 80.22671633 137.59515807 80.80715942 139.10296631 C89.13256836 160.7306923 89.13256836 160.7306923 89.13256836 166.11352539 C77.58256836 166.11352539 66.03256836 166.11352539 54.13256836 166.11352539 C50.933974 159.07661779 47.98529365 152.31787248 45.50756836 145.05102539 C45.22139648 144.23053711 44.93522461 143.41004883 44.64038086 142.56469727 C42.64124117 136.78082267 40.89565405 130.9904777 39.13256836 125.11352539 C21.31256836 125.44352539 3.49256836 125.77352539 -14.86743164 126.11352539 C-17.93418546 134.41334257 -17.93418546 134.41334257 -20.99902344 142.71386719 C-21.39259033 143.77774658 -21.78615723 144.84162598 -22.19165039 145.93774414 C-22.78079224 147.53235474 -22.78079224 147.53235474 -23.38183594 149.15917969 C-25.50983436 154.82346737 -27.6953106 160.46601068 -29.86743164 166.11352539 C-41.41743164 166.11352539 -52.96743164 166.11352539 -64.86743164 166.11352539 C-66.17079931 162.20342238 -65.25391843 160.84565429 -63.76977539 157.03930664 C-63.30112061 155.82283447 -62.83246582 154.6063623 -62.34960938 153.35302734 C-61.83484377 152.04397675 -61.31994852 150.73497714 -60.80493164 149.42602539 C-60.28582815 148.08679583 -59.76768279 146.7471945 -59.25048828 145.40722656 C-58.23873114 142.78824011 -57.22289622 140.17090275 -56.20336914 137.55493164 C-54.70317079 133.69038559 -53.24580113 129.81302216 -51.80493164 125.92602539 C-46.27993774 111.17195717 -40.58252781 96.4833314 -34.84008789 81.81274414 C-34.48791199 80.91250015 -34.13573608 80.01225616 -33.77288818 79.08473206 C-32.01438513 74.59005522 -30.25366205 70.09627163 -28.48901367 65.60400391 C-25.25299077 57.34944488 -22.11003436 49.082595 -19.16552734 40.71850586 C-16.75031173 34.01113822 -14.15178473 27.37364821 -11.5637207 20.73144531 C-10.60165491 18.26050491 -9.64458349 15.78766557 -8.68774414 13.31469727 C-8.07606101 11.74101446 -7.46409298 10.16744235 -6.85180664 8.59399414 C-6.42372711 7.48643013 -6.42372711 7.48643013 -5.98699951 6.35649109 C-3.55702136 0.14082715 -3.55702136 0.14082715 0 0 Z M11.13256836 44.11352539 C5.70435397 58.87258197 0.28494412 73.63473317 -5.05493164 88.42602539 C-5.44092529 89.49199951 -5.82691895 90.55797363 -6.22460938 91.65625 C-6.57467041 92.62828369 -6.92473145 93.60031738 -7.28540039 94.60180664 C-7.59243896 95.45299072 -7.89947754 96.3041748 -8.21582031 97.18115234 C-8.92068666 98.93157475 -8.92068666 98.93157475 -8.86743164 100.11352539 C4.66256836 100.11352539 18.19256836 100.11352539 32.13256836 100.11352539 C29.79308199 92.51019467 27.47188033 84.97562593 24.82006836 77.48852539 C24.52664551 76.65385742 24.23322266 75.81918945 23.9309082 74.95922852 C21.47826362 68.01419351 18.94091579 61.10093575 16.35400391 54.20483398 C15.9388855 53.09229248 15.9388855 53.09229248 15.51538086 51.95727539 C15.27190918 51.30952148 15.0284375 50.66176758 14.77758789 49.99438477 C14.11191681 48.05330604 13.60185342 46.11034162 13.13256836 44.11352539 C12.47256836 44.11352539 11.81256836 44.11352539 11.13256836 44.11352539 Z " fill="#FFFFFF" transform="translate(1119.867431640625,945.886474609375)"/>
<path d="M0 0 C10.23 0 20.46 0 31 0 C38.90178571 19.55357143 38.90178571 19.55357143 41.375 26.625 C43.6172003 33.03234721 46.04766999 39.35782445 48.5 45.6875 C52.59193288 56.25871543 56.5683829 66.8683882 60.5 77.5 C65.5231728 91.07842728 70.65823794 104.60797138 75.88427734 118.10986328 C77.97034195 123.51354661 80.03008806 128.92725531 82.08520508 134.34277344 C83.7984986 138.85601042 85.52604678 143.36312133 87.2734375 147.86328125 C87.64581543 148.82709717 88.01819336 149.79091309 88.40185547 150.78393555 C89.11819951 152.63722493 89.8383994 154.4890299 90.56298828 156.33911133 C90.88251465 157.16822021 91.20204102 157.9973291 91.53125 158.8515625 C91.95760742 159.94718506 91.95760742 159.94718506 92.39257812 161.06494141 C93 163 93 163 93 166 C81.12 166 69.24 166 57 166 C49.5 146 49.5 146 42 126 C24.18 126 6.36 126 -12 126 C-13.98 131.61 -15.96 137.22 -18 143 C-19.43060451 147.00277798 -20.86514316 151.00335389 -22.3125 155 C-22.65861328 155.96421875 -23.00472656 156.9284375 -23.36132812 157.921875 C-23.85729492 159.29085938 -23.85729492 159.29085938 -24.36328125 160.6875 C-24.65501221 161.49574219 -24.94674316 162.30398438 -25.24731445 163.13671875 C-26 165 -26 165 -27 166 C-29.59359322 166.08851529 -32.16039691 166.11525945 -34.75390625 166.09765625 C-35.52935287 166.0962413 -36.3047995 166.09482635 -37.10374451 166.09336853 C-39.59003494 166.08775345 -42.0762366 166.07519846 -44.5625 166.0625 C-46.24413933 166.05748694 -47.92578006 166.0529237 -49.60742188 166.04882812 C-53.73831566 166.03777913 -57.86914276 166.02050445 -62 166 C-61.36002599 161.1711376 -60.45448082 157.0451542 -58.6875 152.5 C-58.43677734 151.84837891 -58.18605469 151.19675781 -57.92773438 150.52539062 C-57.32682502 148.96742656 -56.72214829 147.41091295 -56.11474609 145.85546875 C-54.78448846 142.44795819 -53.46420779 139.03661766 -52.14453125 135.625 C-50.56019262 131.53026697 -48.97536834 127.43572668 -47.38769531 123.34228516 C-44.41388791 115.67289596 -41.47055324 107.99452026 -38.6015625 100.28515625 C-35.89327439 93.01677451 -33.12575493 85.77055585 -30.37207031 78.51928711 C-29.88606122 77.23942304 -29.40005865 75.95955649 -28.9140625 74.6796875 C-28.67091309 74.03941116 -28.42776367 73.39913483 -28.17724609 72.73945618 C-26.55889491 68.47646511 -24.94604036 64.21142766 -23.3359375 59.9453125 C-18.08391172 46.04078036 -12.7591898 32.16634114 -7.375 18.3125 C-7.06291595 17.50875946 -6.75083191 16.70501892 -6.42929077 15.87692261 C-5.54519366 13.60107797 -4.65962375 11.3258131 -3.7734375 9.05078125 C-3.50730148 8.36575531 -3.24116547 7.68072937 -2.96696472 6.97494507 C-1.11571678 2.23143356 -1.11571678 2.23143356 0 0 Z M15 43 C14.63648438 43.969375 14.27296875 44.93875 13.8984375 45.9375 C10.6875 54.5 10.6875 54.5 7.4765625 63.0625 C7.10990479 64.04029419 7.10990479 64.04029419 6.73583984 65.0378418 C6.24404917 66.34922922 5.75218683 67.66058976 5.26025391 68.97192383 C3.95826772 72.44289093 2.6577535 75.91440036 1.359375 79.38671875 C1.08996094 80.10666016 0.82054687 80.82660156 0.54296875 81.56835938 C0.02949103 82.94058433 -0.48355768 84.31296993 -0.99609375 85.68554688 C-2.00643587 88.38444419 -3.0267894 91.06188351 -4.171875 93.70703125 C-5.22645589 96.22070499 -5.22645589 96.22070499 -5 100 C8.2 100 21.4 100 35 100 C33.41753091 92.65796462 33.41753091 92.65796462 31.15625 85.71484375 C30.63417969 84.32628174 30.63417969 84.32628174 30.1015625 82.90966797 C29.73804688 81.94947754 29.37453125 80.98928711 29 80 C28.25695035 77.96089521 27.51744496 75.92049586 26.78125 73.87890625 C26.21857422 72.32139648 26.21857422 72.32139648 25.64453125 70.73242188 C25.26683594 69.68634766 24.88914062 68.64027344 24.5 67.5625 C24.12230469 66.52029297 23.74460937 65.47808594 23.35546875 64.40429688 C20.79372574 57.30448335 18.35432335 50.17122403 16 43 C15.67 43 15.34 43 15 43 Z " fill="#FFFFFF" transform="translate(1793,946)"/>
<path d="M0 0 C1.01673766 0.00092179 2.03347532 0.00184359 3.08102322 0.00279331 C4.24355114 0.00141865 5.40607906 0.00004398 6.60383511 -0.00137234 C8.53404507 0.00402058 8.53404507 0.00402058 10.50324917 0.00952244 C11.86298527 0.00980431 13.22272153 0.00964658 14.58245754 0.00907993 C18.28477281 0.00879196 21.98705595 0.01468871 25.68936372 0.02165389 C29.55444283 0.0278874 33.41952261 0.02849123 37.28460598 0.0296793 C44.60860185 0.03279262 51.93258287 0.04100602 59.25657219 0.05102879 C67.5925895 0.06218989 75.92860751 0.06770037 84.26463044 0.07272422 C101.41701538 0.08318864 118.56937985 0.10153413 135.72175503 0.12304783 C135.72175503 10.02304783 135.72175503 19.92304783 135.72175503 30.12304783 C132.75413613 31.11225413 130.96717687 31.21612957 127.88313198 31.14477634 C126.90234173 31.12468006 125.92155148 31.10458378 124.91104031 31.08387852 C123.32654331 31.04332592 123.32654331 31.04332592 121.71003628 31.00195408 C120.62667492 30.97834309 119.54331356 30.95473209 118.42712307 30.93040562 C114.96270083 30.85375697 111.49850143 30.76973744 108.03425503 30.68554783 C105.68726077 30.63232837 103.34025559 30.57958796 100.9932394 30.5273447 C95.23593969 30.39814015 89.47880585 30.26288149 83.72175503 30.12304783 C83.72267682 30.8178799 83.72359861 31.51271196 83.72454834 32.22859955 C83.74660298 49.11129036 83.76316629 65.99397663 83.7735672 82.87667847 C83.77873029 91.04091947 83.78577323 99.20515088 83.79719448 107.36938572 C83.80714093 114.48276067 83.81360836 121.59612867 83.81584352 128.70951039 C83.8171507 132.47830506 83.82023696 136.24707986 83.82748508 140.01586819 C83.83549819 144.21623599 83.83574619 148.4165689 83.83528042 152.61694431 C83.83887569 153.87569874 83.84247097 155.13445316 83.84617519 156.43135166 C83.84480053 157.56863712 83.84342587 158.70592258 83.84200954 159.87767124 C83.84293134 160.87228587 83.84385313 161.8669005 83.84480286 162.89165497 C83.72175503 165.12304783 83.72175503 165.12304783 82.72175503 166.12304783 C71.50175503 166.12304783 60.28175503 166.12304783 48.72175503 166.12304783 C48.39175503 121.57304783 48.06175503 77.02304783 47.72175503 31.12304783 C30.89175503 30.79304783 14.06175503 30.46304783 -3.27824497 30.12304783 C-3.29886997 25.35867283 -3.31949497 20.59429783 -3.34074497 15.68554783 C-3.34984898 14.18064793 -3.35895298 12.67574802 -3.36833286 11.12524509 C-3.37083042 9.95018406 -3.37332798 8.77512302 -3.37590122 7.56445408 C-3.38113804 6.35474949 -3.38637486 5.1450449 -3.39177036 3.89868259 C-3.23946766 0.17496339 -3.23946766 0.17496339 0 0 Z " fill="#FFFFFF" transform="translate(1560.278244972229,945.8769521713257)"/>
<path d="M0 0 C0.71353638 0.00202423 1.42707275 0.00404846 2.16223145 0.00613403 C2.89091431 0.00517731 3.61959717 0.00422058 4.37036133 0.00323486 C5.91377855 0.00255318 7.45719861 0.00440666 9.00061035 0.00857544 C11.37095544 0.01392391 13.74111104 0.00863011 16.1114502 0.00222778 C17.60754437 0.00288857 19.10363842 0.00416973 20.59973145 0.00613403 C21.31326782 0.0041098 22.0268042 0.00208557 22.76196289 0 C27.76602953 0.02399462 27.76602953 0.02399462 28.88098145 1.13894653 C28.97788552 3.26521451 29.00284967 5.39476473 29.00123596 7.52323914 C29.00209039 8.1978797 29.00294481 8.87252026 29.00382513 9.56760448 C29.00548183 11.84474815 28.99995548 14.12181933 28.99450684 16.3989563 C28.99422498 18.02469888 28.99438267 19.65044158 28.99494934 21.27618408 C28.99523738 25.70368067 28.98933971 30.1311504 28.98237538 34.55864072 C28.97614281 39.18045495 28.97553812 43.80226974 28.97434998 48.42408752 C28.97123637 57.1824289 28.9630226 65.94075786 28.95300049 74.69909376 C28.94184024 84.66748666 28.93632912 94.63588014 28.93130505 104.60427773 C28.92084001 125.11584094 28.90324001 145.62739296 28.88098145 166.13894653 C24.05717343 166.16359843 19.23340178 166.18178346 14.4095459 166.19387817 C12.7672868 166.19891827 11.12503221 166.20575031 9.48278809 166.21438599 C7.12722666 166.22646579 4.77172436 166.23217792 2.4161377 166.23660278 C1.67759048 166.24176407 0.93904327 166.24692535 0.17811584 166.25224304 C-1.58799943 166.25243903 -3.35399001 166.20089372 -5.11901855 166.13894653 C-6.96674494 164.29122015 -6.24523032 161.27076321 -6.2460022 158.79934692 C-6.24834218 157.79456975 -6.24834218 157.79456975 -6.25072944 156.76949406 C-6.25474137 154.5085084 -6.25154907 152.24758903 -6.24841309 149.98660278 C-6.24976704 148.3723344 -6.25154694 146.75806632 -6.25372314 145.14379883 C-6.25829816 140.74722925 -6.25650764 136.35068302 -6.25334406 131.95411301 C-6.25082081 127.36346115 -6.2531579 122.77281136 -6.25473022 118.18215942 C-6.25655202 110.47146239 -6.25414534 102.76077493 -6.24938965 95.05007935 C-6.24394701 86.12222941 -6.24570966 77.19440231 -6.25121605 68.26655293 C-6.25574689 60.61562307 -6.25639788 52.9647001 -6.25377738 45.31376934 C-6.25221445 40.73792331 -6.25202129 36.16208803 -6.25531387 31.58624268 C-6.25819217 27.28535004 -6.25621767 22.98448699 -6.25041962 18.68359756 C-6.24909179 17.10048598 -6.24948651 15.51737194 -6.25168228 13.93426132 C-6.25439293 11.78232209 -6.25101375 9.63047915 -6.2460022 7.47854614 C-6.24562517 6.27137436 -6.24524815 5.06420258 -6.2448597 3.82044983 C-6.02718889 -0.81781863 -4.16070525 0.01995068 0 0 Z " fill="#FFFFFF" transform="translate(1281.1190185546875,945.8610534667969)"/>
<path d="M0 0 C0.71353638 0.00202423 1.42707275 0.00404846 2.16223145 0.00613403 C2.89091431 0.00517731 3.61959717 0.00422058 4.37036133 0.00323486 C5.91377855 0.00255318 7.45719861 0.00440666 9.00061035 0.00857544 C11.37095544 0.01392391 13.74111104 0.00863011 16.1114502 0.00222778 C17.60754437 0.00288857 19.10363842 0.00416973 20.59973145 0.00613403 C21.31326782 0.0041098 22.0268042 0.00208557 22.76196289 0 C27.76602953 0.02399462 27.76602953 0.02399462 28.88098145 1.13894653 C28.97788552 3.26521451 29.00284967 5.39476473 29.00123596 7.52323914 C29.00209039 8.1978797 29.00294481 8.87252026 29.00382513 9.56760448 C29.00548183 11.84474815 28.99995548 14.12181933 28.99450684 16.3989563 C28.99422498 18.02469888 28.99438267 19.65044158 28.99494934 21.27618408 C28.99523738 25.70368067 28.98933971 30.1311504 28.98237538 34.55864072 C28.97614281 39.18045495 28.97553812 43.80226974 28.97434998 48.42408752 C28.97123637 57.1824289 28.9630226 65.94075786 28.95300049 74.69909376 C28.94184024 84.66748666 28.93632912 94.63588014 28.93130505 104.60427773 C28.92084001 125.11584094 28.90324001 145.62739296 28.88098145 166.13894653 C24.05717343 166.16359843 19.23340178 166.18178346 14.4095459 166.19387817 C12.7672868 166.19891827 11.12503221 166.20575031 9.48278809 166.21438599 C7.12722666 166.22646579 4.77172436 166.23217792 2.4161377 166.23660278 C1.67759048 166.24176407 0.93904327 166.24692535 0.17811584 166.25224304 C-1.58799943 166.25243903 -3.35399001 166.20089372 -5.11901855 166.13894653 C-6.96674494 164.29122015 -6.24523032 161.27076321 -6.2460022 158.79934692 C-6.24834218 157.79456975 -6.24834218 157.79456975 -6.25072944 156.76949406 C-6.25474137 154.5085084 -6.25154907 152.24758903 -6.24841309 149.98660278 C-6.24976704 148.3723344 -6.25154694 146.75806632 -6.25372314 145.14379883 C-6.25829816 140.74722925 -6.25650764 136.35068302 -6.25334406 131.95411301 C-6.25082081 127.36346115 -6.2531579 122.77281136 -6.25473022 118.18215942 C-6.25655202 110.47146239 -6.25414534 102.76077493 -6.24938965 95.05007935 C-6.24394701 86.12222941 -6.24570966 77.19440231 -6.25121605 68.26655293 C-6.25574689 60.61562307 -6.25639788 52.9647001 -6.25377738 45.31376934 C-6.25221445 40.73792331 -6.25202129 36.16208803 -6.25531387 31.58624268 C-6.25819217 27.28535004 -6.25621767 22.98448699 -6.25041962 18.68359756 C-6.24909179 17.10048598 -6.24948651 15.51737194 -6.25168228 13.93426132 C-6.25439293 11.78232209 -6.25101375 9.63047915 -6.2460022 7.47854614 C-6.24562517 6.27137436 -6.24524815 5.06420258 -6.2448597 3.82044983 C-6.02718889 -0.81781863 -4.16070525 0.01995068 0 0 Z " fill="#FFFFFF" transform="translate(742.1190185546875,945.8610534667969)"/>
<path d="M0 0 C6.20347387 5.12541978 11.85684676 10.7276906 17.52734375 16.4296875 C18.52603017 17.43024286 19.52494047 18.43057481 20.52406311 19.43069458 C23.13191964 22.0423388 25.73675695 24.65697367 28.34094238 27.27227783 C31.00735236 29.94898323 33.67665464 32.62280102 36.34570312 35.296875 C41.56661101 40.52845398 46.78432751 45.76320096 52 51 C46.87458022 57.20347387 41.2723094 62.85684676 35.5703125 68.52734375 C34.56975714 69.52603017 33.56942519 70.52494047 32.56930542 71.52406311 C29.9576612 74.13191964 27.34302633 76.73675695 24.72772217 79.34094238 C22.05101677 82.00735236 19.37719898 84.67665464 16.703125 87.34570312 C11.47154602 92.56661101 6.23679904 97.78432751 1 103 C-5.20347387 97.87458022 -10.85684676 92.2723094 -16.52734375 86.5703125 C-17.52603017 85.56975714 -18.52494047 84.56942519 -19.52406311 83.56930542 C-22.13191964 80.9576612 -24.73675695 78.34302633 -27.34094238 75.72772217 C-30.00735236 73.05101677 -32.67665464 70.37719898 -35.34570312 67.703125 C-40.56661101 62.47154602 -45.78432751 57.23679904 -51 52 C-45.87458022 45.79652613 -40.2723094 40.14315324 -34.5703125 34.47265625 C-33.56975714 33.47396983 -32.56942519 32.47505953 -31.56930542 31.47593689 C-28.9576612 28.86808036 -26.34302633 26.26324305 -23.72772217 23.65905762 C-21.05101677 20.99264764 -18.37719898 18.32334536 -15.703125 15.65429688 C-10.47154602 10.43338899 -5.23679904 5.21567249 0 0 Z " fill="#FFFFFF" transform="translate(225,740)"/>
</svg>
